<svg width="212" height="51" viewBox="0 0 212 51" fill="none" xmlns="http://www.w3.org/2000/svg">
<path d="M20.5367 2.30075V50.6165H9.90164V16.1053L5.13418 19.5564L0 11.1203L12.102 2.30075H20.5367Z" fill="#242424"/>
<path d="M58.6563 39.8797V50.6165H26.7511V42.9474L43.6205 24.5414C44.354 23.7233 45.0141 22.8797 45.6008 22.0105C46.1387 21.2947 46.6032 20.4767 46.9944 19.5564C47.4345 18.6361 47.6545 17.7414 47.6545 16.8722C47.6545 15.3383 47.2144 14.1368 46.3343 13.2677C45.4542 12.3474 44.1828 11.8872 42.5203 11.8872C40.6622 11.8872 39.2198 12.4241 38.193 13.4977C37.1661 14.5714 36.6527 16.0797 36.6527 18.0226L26.3843 17.2556C26.3843 15.0571 26.7511 13.0376 27.4845 11.197C28.2669 9.30526 29.3426 7.66917 30.7117 6.28872C32.1297 4.90827 33.8167 3.83459 35.7725 3.06767C37.7773 2.30075 40.0266 1.91729 42.5203 1.91729C45.063 1.91729 47.3367 2.27519 49.3415 2.99098C51.3462 3.70676 53.0332 4.72932 54.4023 6.05865C55.8203 7.33684 56.8716 8.87067 57.5562 10.6601C58.2896 12.4496 58.6563 14.3925 58.6563 16.4887C58.6563 18.3293 58.2652 20.0932 57.4828 21.7804C56.7494 23.4165 55.9181 24.8737 54.9891 26.1519C53.9133 27.6346 52.6909 29.015 51.3218 30.2932L42.5203 39.8797H58.6563Z" fill="#242424"/>
<path d="M79.9179 29.5263C77.8643 29.5263 76.2507 30.1143 75.0771 31.2902C73.9036 32.4662 73.3168 33.9233 73.3168 35.6617C73.3168 37.4 73.9036 38.8571 75.0771 40.0331C76.2507 41.209 77.8643 41.797 79.9179 41.797C81.9716 41.797 83.5852 41.209 84.7587 40.0331C85.9323 38.8571 86.519 37.4 86.519 35.6617C86.519 33.9233 85.9323 32.4662 84.7587 31.2902C83.5852 30.1143 81.9716 29.5263 79.9179 29.5263ZM79.9179 10.3534C78.451 10.3534 77.2286 10.8647 76.2507 11.8872C75.2727 12.8586 74.7838 14.009 74.7838 15.3383C74.7838 16.6677 75.2727 17.8436 76.2507 18.8662C77.2286 19.8376 78.451 20.3233 79.9179 20.3233C81.3848 20.3233 82.6073 19.8376 83.5852 18.8662C84.5632 17.8436 85.0521 16.6677 85.0521 15.3383C85.0521 14.009 84.5632 12.8586 83.5852 11.8872C82.6073 10.8647 81.3848 10.3534 79.9179 10.3534ZM79.9179 51C77.2775 51 74.8815 50.6165 72.7301 49.8496C70.6275 49.0316 68.8183 47.9579 67.3025 46.6286C65.8356 45.2481 64.6865 43.6887 63.8553 41.9504C63.0729 40.212 62.6817 38.3714 62.6817 36.4286C62.6817 34.2812 63.0485 32.4662 63.7819 30.9835C64.5643 29.5007 65.42 28.2737 66.349 27.3023C67.4248 26.1774 68.6472 25.2571 70.0163 24.5414C68.9895 23.8767 68.0604 23.0842 67.2292 22.1639C66.5446 21.3459 65.909 20.3233 65.3222 19.0962C64.7843 17.818 64.5154 16.3098 64.5154 14.5714C64.5154 12.8331 64.8821 11.1714 65.6156 9.58647C66.349 7.95038 67.4003 6.5188 68.7694 5.29173C70.1385 4.01353 71.7521 3.01654 73.6102 2.30075C75.5172 1.53383 77.6198 1.15037 79.9179 1.15037C82.2161 1.15037 84.2942 1.53383 86.1523 2.30075C88.0593 3.01654 89.6973 4.01353 91.0665 5.29173C92.4356 6.5188 93.4869 7.95038 94.2203 9.58647C94.9538 11.1714 95.3205 12.8331 95.3205 14.5714C95.3205 16.3098 95.0271 17.818 94.4403 19.0962C93.8536 20.3233 93.2179 21.3459 92.5334 22.1639C91.7021 23.0842 90.7975 23.8767 89.8196 24.5414C91.1887 25.2571 92.4111 26.1774 93.4869 27.3023C94.4159 28.2737 95.2471 29.5007 95.9806 30.9835C96.763 32.4662 97.1541 34.2812 97.1541 36.4286C97.1541 38.3714 96.7385 40.212 95.9073 41.9504C95.1249 43.6887 93.9758 45.2481 92.46 46.6286C90.9931 47.9579 89.1839 49.0316 87.0325 49.8496C84.9299 50.6165 82.5584 51 79.9179 51Z" fill="#242424"/>
<path d="M147.817 24.9248C149.186 25.5895 150.409 26.4586 151.484 27.5323C152.413 28.4526 153.245 29.6286 153.978 31.0601C154.76 32.4917 155.152 34.2812 155.152 36.4286C155.152 38.3714 154.785 40.212 154.051 41.9504C153.318 43.6376 152.267 45.1203 150.897 46.3985C149.577 47.6767 147.988 48.6992 146.13 49.4662C144.321 50.2331 142.316 50.6165 140.116 50.6165H119.212V2.30075H139.016C141.118 2.30075 143.049 2.65864 144.81 3.37443C146.57 4.09022 148.061 5.06165 149.284 6.28872C150.555 7.51579 151.533 8.94737 152.218 10.5835C152.951 12.1684 153.318 13.8812 153.318 15.7218C153.318 17.3579 153.024 18.7639 152.438 19.9398C151.851 21.1158 151.215 22.0617 150.531 22.7774C149.699 23.6466 148.795 24.3624 147.817 24.9248ZM129.847 21.4737H137.915C139.382 21.4737 140.605 20.988 141.583 20.0165C142.561 18.994 143.049 17.818 143.049 16.4887C143.049 15.1594 142.561 14.009 141.583 13.0376C140.605 12.015 139.382 11.5038 137.915 11.5038H129.847V21.4737ZM139.016 41.4135C140.678 41.4135 142.072 40.8511 143.196 39.7263C144.321 38.5504 144.883 37.1955 144.883 35.6617C144.883 34.1278 144.321 32.7985 143.196 31.6737C142.072 30.4977 140.678 29.9098 139.016 29.9098H129.847V41.4135H139.016Z" fill="#242424"/>
<path d="M170.56 50.6165H160.658V15.3383H170.56V50.6165ZM160.291 5.75188C160.291 4.21805 160.829 2.88872 161.905 1.76391C163.03 0.58797 164.325 0 165.792 0C167.259 0 168.531 0.58797 169.606 1.76391C170.731 2.88872 171.293 4.21805 171.293 5.75188C171.293 7.28571 170.731 8.6406 169.606 9.81654C168.531 10.9414 167.259 11.5038 165.792 11.5038C164.325 11.5038 163.03 10.9414 161.905 9.81654C160.829 8.6406 160.291 7.28571 160.291 5.75188Z" fill="#242424"/>
<path d="M198.798 50.6165H188.163V13.0376H174.961V2.30075H212V13.0376H198.798V50.6165Z" fill="#242424"/>
</svg>
